<?xml version="1.0" encoding="utf-8"?>
<!-- Generator: Adobe Illustrator 16.0.0, SVG Export Plug-In . SVG Version: 6.00 Build 0)  -->
<!DOCTYPE svg PUBLIC "-//W3C//DTD SVG 1.1//EN" "http://www.w3.org/Graphics/SVG/1.1/DTD/svg11.dtd">
<svg version="1.1" id="Layer_1" xmlns="http://www.w3.org/2000/svg" xmlns:xlink="http://www.w3.org/1999/xlink" x="0px" y="0px"
	 width="104.88px" height="34.02px" viewBox="0 0 104.88 34.02" enable-background="new 0 0 104.88 34.02" xml:space="preserve">
<g>
	<path fill="#F9F9FA" d="M18.588,14.997h5.607c3.797,0,6.019,2.114,6.019,5.338c0,3.261-2.222,5.375-6.019,5.375h-2.347v3.887h-3.26
		V14.997z M24.051,22.825c1.81,0,2.902-0.859,2.902-2.49c0-1.611-1.093-2.454-2.902-2.454h-2.203v4.944H24.051z"/>
	<path fill="#F9F9FA" d="M42.396,24.348c0,3.189-2.329,5.5-5.571,5.5c-3.242,0-5.571-2.311-5.571-5.5
		c0-3.188,2.329-5.499,5.571-5.499C40.067,18.849,42.396,21.159,42.396,24.348z M34.335,24.348c0,1.612,0.985,2.777,2.49,2.777
		c1.505,0,2.49-1.165,2.49-2.777c0-1.611-0.985-2.776-2.49-2.776C35.32,21.571,34.335,22.736,34.335,24.348z"/>
	<path fill="#F9F9FA" d="M44.26,19.1h3.188v1.074c0.627-0.842,1.595-1.325,2.938-1.325c0.591,0,0.967,0.036,1.379,0.179l0.036,2.992
		c-0.448-0.233-1.003-0.358-1.63-0.358c-1.702,0-2.723,0.967-2.723,2.562v5.374H44.26V19.1z"/>
	<path fill="#F9F9FA" d="M60.061,21.84h-2.078v7.757h-3.188V21.84h-2.079V19.1h2.079v-3.118h3.188V19.1h2.078V21.84z"/>
	<path fill="#F9F9FA" d="M67.835,21.84h-2.007v7.757H62.64V21.84h-1.755V19.1h1.755v-1.039c0-2.061,1.29-3.583,3.565-3.583
		c0.537,0,1.057,0.036,1.451,0.107v2.669c-0.233-0.036-0.592-0.036-0.824-0.036c-0.627,0-1.004,0.394-1.004,1.021v0.86h2.007V21.84z
		"/>
	<path fill="#F9F9FA" d="M79.73,24.348c0,3.189-2.329,5.5-5.571,5.5s-5.571-2.311-5.571-5.5c0-3.188,2.329-5.499,5.571-5.499
		S79.73,21.159,79.73,24.348z M71.669,24.348c0,1.612,0.985,2.777,2.49,2.777s2.49-1.165,2.49-2.777c0-1.611-0.985-2.776-2.49-2.776
		S71.669,22.736,71.669,24.348z"/>
	<path fill="#F9F9FA" d="M84.782,29.597h-3.188V14.549h3.188V29.597z"/>
	<path fill="#F9F9FA" d="M90.73,15.982c0,1.129-0.824,1.953-1.953,1.953c-1.128,0-1.952-0.824-1.952-1.953
		c0-1.128,0.824-1.953,1.952-1.953C89.906,14.029,90.73,14.854,90.73,15.982z M90.372,29.633h-3.188V19.1h3.188V29.633z"/>
	<path fill="#F9F9FA" d="M103.378,24.348c0,3.189-2.329,5.5-5.571,5.5s-5.571-2.311-5.571-5.5c0-3.188,2.329-5.499,5.571-5.499
		S103.378,21.159,103.378,24.348z M95.316,24.348c0,1.612,0.985,2.777,2.49,2.777s2.49-1.165,2.49-2.777
		c0-1.611-0.985-2.776-2.49-2.776S95.316,22.736,95.316,24.348z"/>
</g>
<g>
	<path fill="#F9F9FA" d="M2.403,6.206h3.188v1.003c0.627-0.842,1.416-1.254,2.58-1.254c1.326,0,2.418,0.538,3.117,1.505
		c0.788-1.003,1.899-1.505,3.493-1.505c2.418,0,4.031,1.756,4.031,4.676v6.073h-3.189v-5.536c0-1.594-0.609-2.472-1.773-2.472
		c-1.039,0-1.594,0.824-1.648,2.311v5.697H9.014v-5.536c0-1.594-0.609-2.472-1.773-2.472c-1.039,0-1.595,0.824-1.648,2.311v5.697
		H2.403V6.206z"/>
	<path fill="#F9F9FA" d="M24.51,3.088c0,1.129-0.824,1.953-1.953,1.953c-1.128,0-1.953-0.824-1.953-1.953
		c0-1.128,0.824-1.953,1.953-1.953C23.686,1.136,24.51,1.96,24.51,3.088z M24.151,16.739h-3.188V6.206h3.188V16.739z"/>
	<path fill="#F9F9FA" d="M26.015,11.454c0-3.188,2.096-5.5,5.105-5.5c1.379,0,2.383,0.484,3.01,1.326V6.206h3.188v10.498H34.13
		v-1.075c-0.627,0.842-1.63,1.326-3.01,1.326C28.111,16.954,26.015,14.643,26.015,11.454z M34.184,11.454
		c0-1.612-1.003-2.776-2.562-2.776c-1.523,0-2.49,1.165-2.49,2.776c0,1.612,0.967,2.777,2.49,2.777
		C33.18,14.231,34.184,13.066,34.184,11.454z"/>
	<path fill="#F9F9FA" d="M39.182,11.454c0-3.188,2.257-5.5,5.464-5.5s5.464,2.293,5.464,5.5c0,0.305-0.018,0.645-0.072,1.021h-7.685
		c0.251,1.218,1.093,1.917,2.293,1.917c0.914,0,1.666-0.322,1.935-0.824h3.207c-0.537,2.006-2.597,3.386-5.141,3.386
		C41.439,16.954,39.182,14.661,39.182,11.454z M46.993,10.416C46.724,9.161,45.9,8.48,44.646,8.48s-2.042,0.681-2.311,1.935H46.993z
		"/>
</g>
</svg>
